<svg xmlns="http://www.w3.org/2000/svg" width="16" height="16"><path d="M5.803 1.534C2.516 1.534 0 3.765 0 6.196s2.172 3.841 2.172 3.841l-.353 1.338a.206.206 0 0 0 .301.232l1.587-.899c.702.223 2.191.295 2.336.301a3.808 3.808 0 0 1-.155-1.048c0-1.877 1.634-4.52 5.266-4.52.083 0 .165.002.248.005-.484-2.312-2.886-3.912-5.599-3.912zM3.639 5.408a.721.721 0 1 1 0-1.443.721.721 0 0 1 0 1.443zm4.193 0a.721.721 0 1 1 0-1.443.721.721 0 0 1 0 1.443z"/><path d="M16 9.668c0-2.13-2.499-3.69-4.847-3.69-3.321 0-4.73 2.398-4.73 3.983 0 1.588 1.409 3.983 4.73 3.983a6.13 6.13 0 0 0 1.943-.292l1.249.793a.13.13 0 0 0 .197-.14l-.283-1.23C15.439 12.254 16 10.958 16 9.668zm-6.365-.405a.637.637 0 1 1 0-1.274.637.637 0 0 1 0 1.274zm3.187 0a.637.637 0 1 1 0-1.274.637.637 0 0 1 0 1.274z"/></svg>