<svg xmlns="http://www.w3.org/2000/svg" viewBox="0 0 48 48" width="48" height="48"><title>cocktail</title><g class="nc-icon-wrapper"><circle fill="#EFD358" cx="37" cy="13" r="9"/> <circle fill="#FBF6DD" cx="37" cy="13" r="6"/> <path fill="#BFDEE0" d="M37,14c0-0.55225-0.44775-1-1-1H8c-0.55225,0-1,0.44775-1,1v16h30V14z"/> <path fill="#9EDB9E" d="M10,47h24c1.65685,0,3-1.34315,3-3V30H7v14C7,45.65685,8.34315,47,10,47z"/> <path fill="#42A6DD" d="M21.99902,39c-0.44775,0.00049-0.85547-0.30322-0.96924-0.75732L13.15869,6.7583L2.6582,2.93994 C2.13916,2.75098,1.87158,2.17725,2.06006,1.6582C2.24951,1.13916,2.8252,0.87256,3.3418,1.06006l11,4 c0.31201,0.11377,0.54785,0.375,0.62842,0.69727l8,32c0.13379,0.53613-0.19189,1.0791-0.72754,1.21289 C22.16113,38.99072,22.07959,39,21.99902,39z"/></g></svg>