<svg width="222" height="45" viewBox="0 0 222 45"><g fill="#fff" fill-rule="evenodd"><path d="M219.462 39.104c1.23 0 2.413.988 2.413 2.435a2.424 2.424 0 01-2.413 2.436c-1.224 0-2.413-.99-2.413-2.436 0-1.447 1.189-2.435 2.413-2.435zm-6.825-22.67c4.178 0 9.238 3.347 9.238 10.118 0 6.924-5.022 10.157-9.238 10.157-2.85 0-4.629-1.454-5.23-2.547l-.06-.116v7.152c0 1.521-1.343 2.777-2.876 2.777-1.476 0-2.704-1.164-2.793-2.61l-.005-.167V19.287c0-1.484 1.341-2.74 2.837-2.74 1.476 0 2.704 1.165 2.793 2.576l.005.164v.152c.652-1.56 2.683-3.005 5.329-3.005zm6.825 23.085a1.99 1.99 0 00-1.96 2.02c0 1.2.963 2.02 1.96 2.02a1.99 1.99 0 001.966-2.02c0-1.2-.963-2.02-1.966-2.02zm-.014.683c.605 0 .983.348.983.826 0 .35-.206.633-.573.756l-.128.035.75 1.003h-.365l-.729-.99h-.495v.99h-.323v-2.62h.88zm.014.307h-.57v1.023h.57c.398 0 .632-.177.632-.504 0-.321-.234-.52-.632-.52zm-30.975-24.075c4.37 0 10.312 3.424 10.312 10.194 0 6.81-5.942 10.081-10.312 10.081-4.409 0-10.313-3.271-10.313-10.08 0-6.771 5.904-10.195 10.313-10.195zM109.79 9.283c1.476 0 2.775 1.164 2.87 2.574l.005.164v21.911c0 1.522-1.342 2.739-2.837 2.739-1.533 0-2.798-1.217-2.798-2.7-.46 1.064-2.3 2.738-5.329 2.738-4.217 0-9.239-3.233-9.239-10.157 0-6.77 5.06-10.118 9.239-10.118 2.514 0 4.457 1.309 5.212 2.767l.078.162v-7.342c0-1.483 1.304-2.738 2.799-2.738zm-30.322 7.15c4.37 0 10.312 3.425 10.312 10.195 0 6.81-5.942 10.081-10.312 10.081-4.409 0-10.312-3.271-10.312-10.08 0-6.771 5.903-10.195 10.312-10.195zM58.499 9.55c2.607 0 4.677.647 6.21 1.483 1.534.99 2.569 1.94 2.569 3.386 0 1.636-1.304 2.548-2.684 2.548-1.073 0-1.801-.532-2.223-.798-.422-.229-1.687-1.218-3.795-1.218-4.102 0-7.552 3.614-7.552 8.179s3.411 8.178 7.628 8.178c2.032 0 3.297-.989 3.719-1.217.422-.266 1.112-.799 2.223-.799 1.38 0 2.684.913 2.684 2.549 0 1.483-.959 2.396-2.607 3.385-1.533.875-3.527 1.484-6.095 1.484-6.824 0-13.61-5.554-13.61-13.58S51.83 9.549 58.5 9.549zm116.112 6.923c1.724 0 2.606 1.18 2.606 2.549 0 1.521-1.188 2.586-3.565 2.586-2.788 0-4.53 2.04-4.738 3.377l-.015.123v8.787c0 1.484-1.265 2.739-2.799 2.739-1.476 0-2.704-1.164-2.793-2.575l-.005-.164v-14.53a2.811 2.811 0 012.798-2.816 2.811 2.811 0 012.794 2.643l.005.172v1.521c.153-1.407 2.492-4.412 5.712-4.412zm-49.105-.038c4.37 0 9.66 3.461 9.66 9.244 0 2.135-1.112 2.916-3.269 2.964l-.22.003-10.503-.152c.499 2.358 2.377 3.651 5.022 3.651 1.265 0 1.648-.19 2.76-.57.767-.305 1.342-.647 2.07-.647 1.15 0 1.879.837 1.879 1.902 0 .685-.269 1.446-1.342 2.282-1.342.875-3.182 1.522-5.597 1.522-5.175 0-10.619-3.081-10.619-10.005 0-6.923 5.789-10.194 10.159-10.194zm21.313-6.619c7.437 0 13.8 4.64 13.8 13.162 0 8.703-6.188 13.336-13.49 13.463l-.31.003h-5.597c-1.777 0-3.088-1.242-3.177-2.97l-.005-.188V12.972c0-1.763 1.251-3.064 2.993-3.152l.189-.005h5.597zM211.6 21.19c-1.916 0-4.523 1.37-4.523 5.363 0 4.033 2.607 5.402 4.523 5.402 2.339 0 4.677-1.826 4.677-5.402 0-3.537-2.338-5.363-4.677-5.363zm-108.865 0c-2.338 0-4.677 1.826-4.677 5.363 0 3.576 2.339 5.402 4.677 5.402 1.917 0 4.524-1.37 4.524-5.402 0-3.994-2.607-5.363-4.524-5.363zm85.75.076c-2.568 0-4.791 2.054-4.791 5.363 0 3.196 2.223 5.25 4.792 5.25 2.53 0 4.753-2.054 4.753-5.25 0-3.309-2.223-5.363-4.753-5.363zm-109.018 0c-2.569 0-4.792 2.054-4.792 5.363 0 3.196 2.223 5.25 4.792 5.25 2.53 0 4.753-2.054 4.753-5.25 0-3.309-2.223-5.363-4.753-5.363zm67.35-6.619h-3.028v16.966h3.029c5.06 0 8.012-2.473 8.012-8.635 0-5.858-2.952-8.33-8.012-8.33zm-21.312 6.62c-1.93 0-3.858.925-4.293 3.26l-.039.238h8.472c-.383-2.51-2.147-3.499-4.14-3.499zM30.75 23.486l-3.33 3.329c-4.112 4.112-10.609 5.144-15.504 2.004-6.874-4.41-7.595-13.7-2.162-19.133l3.598-3.598a3.076 3.076 0 00-4.35-4.35L5.405 5.337c-7.207 7.207-7.207 18.89 0 26.097 7.206 7.206 18.89 7.206 26.096 0l3.598-3.598a3.075 3.075 0 10-4.35-4.35"></path><path d="M12.627 24.21a8.201 8.201 0 0011.598-11.598l-3.728-3.728a2.928 2.928 0 00-4.141 0l-3.73 3.728a8.201 8.201 0 000 11.599"></path><path d="M16.057 15.318a1.512 1.512 0 110 3.024 1.512 1.512 0 010-3.024" fill="#5FDD9D"></path></g></svg>