<svg xmlns="http://www.w3.org/2000/svg" viewBox="0 0 48 48" width="48" height="48"><title>coffee</title><g class="nc-icon-wrapper"><path d="M40.5,34h-4a1.5,1.5,0,0,1,0-3h4A2.5,2.5,0,0,0,43,28.5V21H36.5a1.5,1.5,0,0,1,0-3h8A1.5,1.5,0,0,1,46,19.5v9A5.507,5.507,0,0,1,40.5,34Z" fill="#b3b3b3"/> <path d="M23,9a1,1,0,0,1-1-1V2a1,1,0,0,1,2,0V8A1,1,0,0,1,23,9Z" fill="#e86c60"/> <path d="M14,11a1,1,0,0,1-1-1V4a1,1,0,0,1,2,0v6A1,1,0,0,1,14,11Z" fill="#e86c60"/> <path d="M32,11a1,1,0,0,1-1-1V4a1,1,0,0,1,2,0v6A1,1,0,0,1,32,11Z" fill="#e86c60"/> <path d="M31,42H15a7.009,7.009,0,0,1-7-7V16a1,1,0,0,1,1-1H37a1,1,0,0,1,1,1V35A7.009,7.009,0,0,1,31,42Z" fill="#e6e6e6"/> <path d="M37.528,47H8.472A5,5,0,0,1,4,44.236l-.895-1.789A1,1,0,0,1,4,41H42a1,1,0,0,1,.9,1.447L42,44.236A5,5,0,0,1,37.528,47Z" fill="#b3b3b3"/></g></svg>