<svg xmlns="http://www.w3.org/2000/svg" viewBox="0 0 48 48" width="48" height="48"><title>coffee long</title><g class="nc-icon-wrapper"><path d="M35.978,46H12.022a1,1,0,0,1-1-.916L8,9H40L36.974,45.084A1,1,0,0,1,35.978,46Z" fill="#ead8c5"/> <polygon points="37.904 34 39.078 20 8.922 20 10.096 34 37.904 34" fill="#c19f85"/> <path d="M42,7H6A1,1,0,0,0,5,8V9a1,1,0,0,0,1,1H42a1,1,0,0,0,1-1V8A1,1,0,0,0,42,7Z" fill="#444"/> <path d="M35.251,2.629A1,1,0,0,0,34.323,2H13.677a1,1,0,0,0-.928.629L11,7H37Z" fill="#5b5b5b"/></g></svg>