<svg xmlns="http://www.w3.org/2000/svg" viewBox="0 0 48 48" width="48" height="48"><title>responsive</title><g class="nc-icon-wrapper"><rect x="20" y="35" fill="#282828" width="8" height="8"/> <path fill="#444444" d="M46,8H2C1.447,8,1,8.447,1,9v29c0,0.553,0.447,1,1,1h44c0.553,0,1-0.447,1-1V9C47,8.447,46.553,8,46,8z"/> <path fill="#444444" d="M32,44H16c-0.553,0-1-0.447-1-1s0.447-1,1-1h16c0.553,0,1,0.447,1,1S32.553,44,32,44z"/> <path fill="#fff" d="M43,36H5c-0.552,0-1-0.448-1-1V12c0-0.552,0.448-1,1-1h38c0.552,0,1,0.448,1,1v23C44,35.552,43.552,36,43,36 z"/> <path fill="#B3B3B3" d="M40,2H25c-1.103,0-2,0.897-2,2v18c0,1.103,0.897,2,2,2h15c1.103,0,2-0.897,2-2V4C42,2.897,41.103,2,40,2z"/> <path fill="#B3B3B3" d="M16,28H8c-1.105,0-2,0.895-2,2v14c0,1.105,0.895,2,2,2h8c1.105,0,2-0.895,2-2V30C18,28.895,17.105,28,16,28z "/> <path fill="#8E8E8E" d="M15,43H9c-0.552,0-1-0.448-1-1V31c0-0.552,0.448-1,1-1h6c0.552,0,1,0.448,1,1v11C16,42.552,15.552,43,15,43z "/> <path fill="#8E8E8E" d="M38,20H27c-0.552,0-1-0.448-1-1V6c0-0.552,0.448-1,1-1h11c0.552,0,1,0.448,1,1v13C39,19.552,38.552,20,38,20 z"/></g></svg>