<svg width="122" height="44" viewBox="0 0 122 44"><g fill="#fff" fill-rule="evenodd"><path d="M96.437 15.711c4.119 0 9.107 3.327 9.107 10.056 0 6.88-4.95 10.093-9.107 10.093-2.909 0-4.685-1.55-5.214-2.646v7.107c0 1.512-1.323 2.76-2.834 2.76a2.774 2.774 0 01-2.758-2.76V18.547c0-1.475 1.322-2.722 2.796-2.722 1.511 0 2.758 1.247 2.758 2.722v.15c.643-1.55 2.645-2.986 5.252-2.986zM53.741 8.87c3.25 0 5.139 1.133 6.726 2.645.832.946 1.247 1.664 1.247 2.533 0 1.248-.945 2.23-2.343 2.23-.869 0-1.7-.453-2.23-1.058-.982-.983-1.775-1.436-3.173-1.436-2.078 0-3.174 1.172-3.174 2.608 0 .983.491 2.041 2.645 2.91l1.247.454c6.197 2.344 8.426 4.612 8.426 8.128 0 5.368-5.328 7.976-9.71 7.976-2.873 0-5.895-1.096-7.86-3.25-.416-.492-1.21-1.513-1.21-2.799 0-1.171.756-2.38 2.305-2.38 1.247 0 2.078.793 2.683 1.587 1.323 1.474 2.796 1.89 4.043 1.89 1.663 0 3.93-.642 3.93-3.024 0-1.701-1.058-2.57-3.93-3.705l-1.36-.529c-3.93-1.512-6.915-3.365-6.915-7.333 0-4.612 3.854-7.447 8.653-7.447zm66.153 23.177c.9 0 1.821.764 1.821 1.869 0 1.104-.92 1.868-1.82 1.868a1.867 1.867 0 01-1.827-1.868c0-1.105.921-1.87 1.826-1.87zm-.748-16.298c1.7 0 2.57 1.172 2.57 2.533 0 1.512-1.172 2.57-3.515 2.57-2.834 0-4.572 2.155-4.685 3.478v8.733c0 1.474-1.247 2.722-2.759 2.722-1.511 0-2.758-1.248-2.758-2.722v-14.44c0-1.55 1.247-2.798 2.758-2.798 1.512 0 2.759 1.247 2.759 2.797v1.512c.15-1.398 2.456-4.385 5.63-4.385zm-50.82-7.144a2.775 2.775 0 012.758 2.76v11.87l6.84-6.616c.453-.454 1.17-.794 1.85-.794 1.399 0 2.495 1.172 2.495 2.495 0 .718-.227 1.323-.68 1.777l-5.026 4.611 6.31 7.032c.34.34.68.945.68 1.625 0 1.285-1.058 2.42-2.418 2.42-.68 0-1.323-.303-1.7-.756l-6.348-7.183-2.003 1.852v3.365c0 1.512-1.247 2.721-2.758 2.721-1.512 0-2.759-1.21-2.759-2.721V11.364a2.775 2.775 0 012.759-2.76zm51.568 23.74a1.56 1.56 0 00-1.522 1.57c0 .943.78 1.57 1.522 1.57.738 0 1.518-.627 1.518-1.57 0-.942-.78-1.57-1.518-1.57zm-.02.534c.46 0 .753.278.753.634a.62.62 0 01-.492.628l.597.77h-.294l-.57-.76h-.408v.76h-.251v-2.032h.664zm.015.23h-.434v.822h.434c.309 0 .481-.141.481-.408 0-.246-.172-.414-.48-.414zM95.417 20.437c-1.889 0-4.459 1.36-4.459 5.33 0 4.007 2.57 5.368 4.46 5.368 2.304 0 4.609-1.815 4.609-5.368 0-3.516-2.305-5.33-4.61-5.33zm-64.911 2.357l-3.303 3.304c-4.08 4.082-10.525 5.106-15.381 1.99-6.82-4.376-7.535-13.598-2.145-18.99l3.57-3.571a3.054 3.054 0 000-4.317 3.05 3.05 0 00-4.316 0l-3.57 3.57c-7.148 7.153-7.148 18.75 0 25.902 7.15 7.152 18.741 7.152 25.89 0l3.57-3.571a3.053 3.053 0 000-4.317 3.05 3.05 0 00-4.315 0"></path><path fill-rule="nonzero" d="M21.13 15.85l-1.763 5.294c-.202.604-1.055.604-1.256 0l-.673-2.019a.662.662 0 00-.418-.418L15 18.034c-.603-.202-.603-1.055 0-1.256l5.293-1.765a.662.662 0 01.836.837m2.381-6.232h-5.23a8.138 8.138 0 00-8.137 8.14 8.138 8.138 0 008.136 8.14 8.138 8.138 0 008.137-8.14v-5.234c0-1.605-1.3-2.906-2.906-2.906"></path></g></svg>